# Blender v2.82 (sub 7) OBJ File: ''
# www.blender.org
o Cube.001
v -1.000000 1.000000 -1.000000
v 1.000000 1.000000 1.000000
v 1.000000 1.000000 -1.000000
v 1.000000 1.000000 1.000000
v -1.000000 -1.000000 1.000000
v 1.000000 -1.000000 1.000000
v -1.000000 1.000000 1.000000
v -1.000000 -1.000000 -1.000000
v -1.000000 -1.000000 1.000000
v 1.000000 -1.000000 -1.000000
v -1.000000 -1.000000 1.000000
v -1.000000 -1.000000 -1.000000
v 1.000000 1.000000 -1.000000
v 1.000000 -1.000000 1.000000
v 1.000000 -1.000000 -1.000000
v -1.000000 1.000000 -1.000000
v 1.000000 -1.000000 -1.000000
v -1.000000 -1.000000 -1.000000
v -1.000000 1.000000 1.000000
v -1.000000 1.000000 1.000000
v -1.000000 1.000000 -1.000000
v 1.000000 -1.000000 1.000000
v 1.000000 1.000000 1.000000
v 1.000000 1.000000 -1.000000
vt 0.107474 0.877982
vt 0.149780 0.835676
vt 0.149780 0.877982
vt 0.796589 0.792292
vt 0.812445 0.776437
vt 0.812445 0.792292
vt 0.796589 0.839859
vt 0.812445 0.824004
vt 0.812445 0.839859
vt 0.241089 0.137057
vt 0.163991 0.214156
vt 0.163991 0.137057
vt 0.796589 0.808148
vt 0.812445 0.792292
vt 0.812445 0.808148
vt 0.796589 0.824004
vt 0.812445 0.808148
vt 0.812445 0.824004
vt 0.107474 0.835676
vt 0.796589 0.776437
vt 0.796589 0.824004
vt 0.241089 0.214156
vt 0.796589 0.792292
vt 0.796589 0.808148
vn 0.0000 1.0000 0.0000
vn 0.0000 -0.0000 1.0000
vn -1.0000 -0.0000 0.0000
vn 0.0000 -1.0000 -0.0000
vn 1.0000 -0.0000 0.0000
vn 0.0000 0.0000 -1.0000
s 1
f 1/1/1 2/2/1 3/3/1
f 4/4/2 5/5/2 6/6/2
f 7/7/3 8/8/3 9/9/3
f 10/10/4 11/11/4 12/12/4
f 13/13/5 14/14/5 15/15/5
f 16/16/6 17/17/6 18/18/6
f 1/1/1 19/19/1 2/2/1
f 4/4/2 20/20/2 5/5/2
f 7/7/3 21/21/3 8/8/3
f 10/10/4 22/22/4 11/11/4
f 13/13/5 23/23/5 14/14/5
f 16/16/6 24/24/6 17/17/6
