# Blender v2.82 (sub 7) OBJ File: 'character.blend'
# www.blender.org
o Cube.002
v -0.066141 3.057113 -0.092577
v -0.259056 3.083669 -0.092576
v -0.218950 3.438581 -0.083855
v -0.024763 3.728320 -0.076197
v -0.044108 3.414510 0.084891
v -0.164443 3.920936 -0.072002
v 0.128200 0.014182 0.146531
v 0.128200 0.014182 -0.145496
v 0.081747 0.621780 -0.135471
v -0.175349 -0.014182 -0.145496
v -0.214944 0.928153 -0.129997
v 0.056386 0.953506 0.131033
v 0.032699 1.263326 -0.124886
v -0.240468 1.535614 -0.120007
v 0.010092 1.559026 0.121043
v -0.011723 1.844363 -0.115299
v -0.264180 2.099948 -0.110725
v -0.032915 2.121557 0.111761
v -0.063822 2.525815 -0.104056
v -0.281220 2.505499 -0.104055
v -0.103190 4.462989 0.059718
v 0.019486 4.446100 -0.058682
v 0.014446 4.269059 -0.036568
v -0.259055 3.083669 0.093613
v -0.292547 2.780641 -0.099728
v -0.292547 2.780641 0.100764
v -0.083601 2.776059 -0.099728
v -0.066141 3.057110 0.093613
v -0.083601 2.776059 0.100764
v -0.218950 3.438581 0.084892
v -0.014164 3.900247 0.073038
v -0.164443 3.920936 0.073038
v 0.019486 4.446100 0.059718
v -0.214943 0.928153 0.131034
v -0.175348 -0.014182 0.146532
v -0.240467 1.535614 0.121043
v -0.264179 2.099948 0.111762
v -0.281220 2.505499 0.105092
v -0.063821 2.525813 0.105091
v -0.170084 3.132933 0.318635
v -0.874617 3.626167 -0.254613
v -0.332274 3.655024 -0.792888
v 0.418995 3.172434 0.008560
v -0.693424 4.921019 -0.893206
v 0.951564 3.929102 0.307653
v 1.217415 4.947869 -0.013980
v 0.693424 4.880303 0.893206
v -0.030298 3.973803 1.000972
v 0.012453 4.909194 1.113254
v -0.673275 4.934826 0.908076
v -0.012453 4.892128 -1.113254
v 0.566989 3.935422 -0.800354
v 0.673275 4.866496 -0.908076
v 0.052521 5.842746 0.985720
v 1.028486 5.798210 0.284799
v 0.255514 6.415273 0.542257
v -0.944611 5.876985 0.313933
v -0.418995 6.628888 -0.008560
v -0.584915 5.853617 -0.802172
v 0.634528 5.804931 -0.820182
v 0.170084 6.668389 -0.318635
v 0.671625 6.394154 -0.018960
v -1.217415 4.853453 0.013980
v -1.021705 4.007759 0.321456
vt 0.911557 0.695841
vt 0.898673 0.693464
vt 0.901941 0.666068
vt 0.924202 0.644086
vt 0.934951 0.668386
vt 0.922994 0.696060
vt 0.915428 0.643973
vt 0.906383 0.628835
vt 0.939145 0.932857
vt 0.919567 0.932857
vt 0.920202 0.885551
vt 0.917456 0.884394
vt 0.899176 0.933121
vt 0.898077 0.860201
vt 0.938049 0.859724
vt 0.920873 0.835602
vt 0.915227 0.834712
vt 0.897369 0.813194
vt 0.937343 0.812580
vt 0.921481 0.790364
vt 0.913208 0.789716
vt 0.896711 0.769525
vt 0.936687 0.768783
vt 0.922194 0.737308
vt 0.896237 0.738143
vt 0.910841 0.736944
vt 0.947034 0.588505
vt 0.956794 0.589946
vt 0.955233 0.603693
vt 0.941871 0.695481
vt 0.953776 0.718984
vt 0.940769 0.718984
vt 0.909928 0.717562
vt 0.922468 0.717823
vt 0.935476 0.696060
vt 0.935909 0.717823
vt 0.886273 0.805050
vt 0.875016 0.829279
vt 0.872272 0.805803
vt 0.943199 0.667955
vt 0.953951 0.695481
vt 0.889971 0.854570
vt 0.878289 0.856772
vt 0.954415 0.630545
vt 0.954147 0.667955
vt 0.892778 0.892245
vt 0.882737 0.894138
vt 0.934236 0.630773
vt 0.945005 0.630545
vt 0.918892 0.601964
vt 0.919567 0.588505
vt 0.925495 0.588505
vt 0.933432 0.588505
vt 0.895933 0.934583
vt 0.939696 0.862960
vt 0.958091 0.936199
vt 0.939145 0.936199
vt 0.896850 0.518839
vt 0.937358 0.571380
vt 0.896850 0.568513
vt 0.919567 0.931447
vt 0.895933 0.590130
vt 0.874430 0.661772
vt 0.875536 0.588505
vt 0.955689 0.815748
vt 0.956631 0.862960
vt 0.892662 0.663224
vt 0.873717 0.709002
vt 0.940380 0.771887
vt 0.940050 0.815748
vt 0.890554 0.710344
vt 0.873055 0.752880
vt 0.940617 0.740368
vt 0.954814 0.771887
vt 0.888595 0.754117
vt 0.872579 0.784412
vt 0.936216 0.737308
vt 0.954186 0.740368
vt 0.949112 0.589946
vt 0.895933 0.716854
vt 0.887906 0.826849
vt 0.887736 0.936128
vt 0.937358 0.521706
vt 0.887187 0.785575
vt 0.113338 0.849627
vt 0.145058 0.802763
vt 0.174106 0.832798
vt 0.131502 0.882889
vt 0.402045 0.761719
vt 0.368485 0.763294
vt 0.402045 0.686630
vt 0.310063 0.713352
vt 0.271946 0.669322
vt 0.313418 0.647161
vt 0.163580 0.743071
vt 0.163386 0.687861
vt 0.198355 0.687817
vt 0.229532 0.940294
vt 0.214073 0.865846
vt 0.248978 0.870646
vt 0.259136 0.742973
vt 0.232425 0.697418
vt 0.163287 0.632534
vt 0.113344 0.632110
vt 0.154076 0.597815
vt 0.214073 0.632288
vt 0.188816 0.586313
vt 0.398744 0.631647
vt 0.339018 0.630521
vt 0.361552 0.586313
vt 0.283595 0.816686
vt 0.221557 0.810793
vt 0.261220 0.761563
vt 0.264892 0.616390
vt 0.214073 0.645894
vt 0.236337 0.593101
vt 0.215297 0.586313
vt 0.230730 0.760391
vt 0.366109 0.763294
vt 0.354138 0.814161
vt 0.332555 0.767134
vt 0.374749 0.839281
vt 0.320198 0.802230
vt 0.313418 0.839281
vt 0.350527 0.690671
vt 0.128585 0.687697
vt 0.283595 0.872413
vt 0.275976 0.926048
vt 0.338073 0.740907
vt 0.313418 0.686637
vt 0.214073 0.742820
vt 0.113338 0.742650
vt 0.181810 0.882889
vt 0.121122 0.792385
vt 0.168830 0.792385
vt 0.313418 0.760391
vt 0.138843 0.788321
vn 0.7073 -0.0263 -0.7064
vn -0.7014 0.0966 -0.7062
vn -0.5486 0.0824 -0.8320
vn 0.6012 -0.0038 -0.7991
vn 0.7075 -0.0264 0.7062
vn -0.7954 0.2192 -0.5650
vn 0.6947 -0.2701 0.6666
vn 0.4824 -0.7751 -0.4081
vn 0.7041 0.0655 -0.7071
vn -0.6471 -0.3543 -0.6751
vn -0.5553 -0.0097 -0.8316
vn 0.7041 0.0655 0.7071
vn -0.7999 -0.0238 -0.5997
vn -0.7073 -0.0181 -0.7067
vn 0.7967 0.0720 -0.6000
vn -0.7070 -0.0173 -0.7070
vn -0.7142 0.6194 -0.3261
vn 0.4225 0.7834 -0.4558
vn -0.7932 0.1433 -0.5919
vn -0.5947 0.0849 0.7995
vn -0.8294 0.0605 -0.5554
vn -0.8312 0.0186 0.5556
vn 0.5993 0.0093 -0.8004
vn 0.8316 -0.0377 0.5541
vn 0.5988 0.0374 0.8000
vn -0.7932 0.1044 0.6000
vn -0.7310 0.2046 0.6510
vn 0.4563 0.3908 0.7994
vn -0.7999 -0.0237 0.5997
vn -0.3403 -0.8425 0.4177
vn -0.5553 -0.0096 0.8316
vn -0.7073 -0.0181 0.7067
vn -0.6002 -0.0119 0.7997
vn 0.7042 0.0667 0.7069
vn -0.3251 -0.9174 0.2294
vn -0.8057 -0.5010 -0.3160
vn -0.2201 -0.6073 -0.7634
vn 0.4686 -0.8834 0.0035
vn -0.6429 -0.0566 -0.7639
vn 0.8475 -0.4242 0.3189
vn 0.9917 -0.0275 -0.1254
vn 0.6132 -0.0172 0.7897
vn 0.0562 -0.4179 0.9067
vn 0.0112 0.0077 0.9999
vn -0.5954 0.0294 0.8029
vn 0.0056 -0.0066 -1.0000
vn 0.5982 -0.3980 -0.6956
vn 0.6116 -0.0302 -0.7906
vn -0.0250 0.4149 0.9095
vn 0.8513 0.3858 0.3557
vn 0.2898 0.7922 0.5371
vn -0.8403 0.4292 0.3313
vn -0.4844 0.8546 0.1872
vn -0.5364 0.4248 -0.7292
vn 0.5808 0.3758 -0.7221
vn 0.1742 0.9165 -0.3603
vn 0.7064 0.7071 -0.0303
vn -0.9976 0.0306 -0.0625
vn -0.7866 -0.3792 0.4873
s 1
f 1/1/1 2/2/2 3/3/3
f 4/4/4 5/5/5 1/6/1
f 4/7/4 3/3/3 6/8/6
f 7/9/7 8/10/8 9/11/9
f 9/12/9 10/13/10 11/14/11
f 12/15/12 9/11/9 13/16/9
f 13/17/9 11/14/11 14/18/13
f 15/19/12 13/16/9 16/20/9
f 16/21/9 14/18/13 17/22/14
f 18/23/12 16/20/9 19/24/15
f 20/25/16 19/26/15 17/22/14
f 21/27/17 22/28/18 23/29/19
f 24/30/20 25/31/21 26/32/22
f 27/33/23 2/2/2 1/1/1
f 27/34/23 28/35/24 29/36/25
f 29/37/25 24/38/20 26/39/22
f 30/40/26 2/41/2 24/30/20
f 24/38/20 5/42/5 30/43/26
f 1/6/1 5/5/5 28/35/24
f 30/40/26 6/44/6 3/45/3
f 3/3/3 4/7/4 1/1/1
f 30/43/26 31/46/5 32/47/27
f 4/4/4 31/48/5 5/5/5
f 32/49/27 23/29/19 6/44/6
f 4/7/4 23/50/19 22/51/18
f 31/48/5 22/52/18 33/53/28
f 33/54/28 32/47/27 31/46/5
f 34/55/29 10/56/10 35/57/30
f 35/58/30 8/59/8 7/60/7
f 10/13/10 9/12/9 8/61/8
f 7/62/7 34/63/29 35/64/30
f 12/15/12 7/9/7 9/11/9
f 34/55/29 14/65/13 11/66/11
f 13/17/9 9/12/9 11/14/11
f 12/67/12 36/68/31 34/63/29
f 13/16/9 15/19/12 12/15/12
f 37/69/32 14/65/13 36/70/31
f 16/21/9 13/17/9 14/18/13
f 15/71/12 37/72/32 36/68/31
f 18/23/12 15/19/12 16/20/9
f 38/73/33 17/74/14 37/69/32
f 19/26/15 16/21/9 17/22/14
f 18/75/12 38/76/33 37/72/32
f 39/77/34 18/23/12 19/24/15
f 26/32/22 20/78/16 38/73/33
f 20/25/16 27/33/23 19/26/15
f 19/24/15 29/36/25 39/77/34
f 38/76/33 29/37/25 26/39/22
f 21/27/17 33/79/28 22/28/18
f 24/30/20 2/41/2 25/31/21
f 27/33/23 25/80/21 2/2/2
f 27/34/23 1/6/1 28/35/24
f 29/37/25 28/81/24 24/38/20
f 30/40/26 3/45/3 2/41/2
f 24/38/20 28/81/24 5/42/5
f 30/40/26 32/49/27 6/44/6
f 30/43/26 5/42/5 31/46/5
f 32/49/27 21/27/17 23/29/19
f 4/7/4 6/8/6 23/50/19
f 31/48/5 4/4/4 22/52/18
f 33/54/28 21/82/17 32/47/27
f 34/55/29 11/66/11 10/56/10
f 35/58/30 10/83/10 8/59/8
f 7/62/7 12/67/12 34/63/29
f 34/55/29 36/70/31 14/65/13
f 12/67/12 15/71/12 36/68/31
f 37/69/32 17/74/14 14/65/13
f 15/71/12 18/75/12 37/72/32
f 38/73/33 20/78/16 17/74/14
f 18/75/12 39/84/34 38/76/33
f 26/32/22 25/31/21 20/78/16
f 20/25/16 25/80/21 27/33/23
f 19/24/15 27/34/23 29/36/25
f 38/76/33 39/84/34 29/37/25
f 40/85/35 41/86/36 42/87/37
f 40/85/35 42/87/37 43/88/38
f 42/89/37 41/90/36 44/91/39
f 45/92/40 46/93/41 47/94/42
f 48/95/43 49/96/44 50/97/45
f 42/98/37 44/99/39 51/100/46
f 52/101/47 53/102/48 46/93/41
f 54/103/49 55/104/50 56/105/51
f 57/106/52 54/103/49 58/107/53
f 59/108/54 57/109/52 58/110/53
f 60/111/55 59/112/54 61/113/56
f 55/114/50 60/115/55 62/116/57
f 62/116/57 60/115/55 61/117/56
f 61/113/56 59/112/54 58/118/53
f 58/119/53 56/120/51 61/121/56
f 58/119/53 54/122/49 56/120/51
f 56/120/51 62/123/57 61/121/56
f 56/120/51 55/124/50 62/123/57
f 46/93/41 60/115/55 55/114/50
f 46/93/41 53/102/48 60/115/55
f 51/100/46 59/112/54 60/111/55
f 51/100/46 44/99/39 59/112/54
f 63/125/58 57/109/52 59/108/54
f 50/97/45 54/103/49 57/106/52
f 50/97/45 49/96/44 54/103/49
f 47/126/42 55/104/50 54/103/49
f 47/94/42 46/93/41 55/114/50
f 53/127/48 51/100/46 60/111/55
f 53/127/48 52/128/47 51/100/46
f 52/128/47 42/98/37 51/100/46
f 44/91/39 63/125/58 59/108/54
f 44/91/39 41/90/36 63/125/58
f 41/90/36 64/129/59 63/125/58
f 63/125/58 50/130/45 57/109/52
f 63/125/58 64/129/59 50/130/45
f 64/131/59 48/95/43 50/97/45
f 49/96/44 47/126/42 54/103/49
f 49/96/44 48/95/43 47/126/42
f 48/95/43 45/132/40 47/126/42
f 45/92/40 52/101/47 46/93/41
f 43/88/38 42/87/37 52/133/47
f 41/86/36 40/85/35 64/134/59
f 40/135/35 48/95/43 64/131/59
f 45/92/40 43/136/38 52/101/47
f 40/135/35 43/137/38 48/95/43
f 43/137/38 45/132/40 48/95/43
